<svg width="53" height="52" viewBox="0 0 53 52" fill="none" xmlns="http://www.w3.org/2000/svg">
<path d="M46.7214 38H12.7314C12.0516 36.3649 11.2358 32.6041 13.4112 30.6419C15.5865 28.6798 17.9432 20.5586 18.8496 16.7433C20.6624 13.7456 25.2397 9.71226 29.0466 17.5609C30.6328 20.8311 35.1648 23.0113 35.8446 20.8311C36.9776 19.196 39.9234 16.9068 42.6426 20.8311C46.0416 25.7365 50.1204 30.6419 46.7214 38Z" fill="#8C8068" stroke="#70634A"/>
<path d="M32.0909 33.3807C29.9352 35.3673 31.2226 36.3042 34.6937 34.8307C38.1649 33.3571 37.3247 35.8566 39.5084 33.4461C41.6922 31.0355 35.0307 29.7426 34.8622 32.2866C34.6937 34.8307 32.0909 33.3807 32.0909 33.3807Z" fill="#D3D0C3" stroke="#EAE8E1"/>
<path d="M40.0162 24.0623C44.6596 24.4143 46.2618 25.4781 42.3399 25.9464C38.4179 26.4147 43.7827 27.587 38.2584 26.9915C32.7342 26.3961 31.7696 23.025 37.0547 24.4857C42.3399 25.9464 40.0162 24.0623 40.0162 24.0623Z" fill="#D3D0C3" stroke="#EAE8E1"/>
<path d="M21.5157 19.1571C21.5426 16.1974 22.7078 15.531 23.6242 18.3192C24.5407 21.1073 25.5109 17.9761 25.2622 21.4307C25.0134 24.8854 20.9622 24.2582 22.2932 21.2887C23.6242 18.3192 21.5157 19.1571 21.5157 19.1571Z" fill="#D3D0C3" stroke="#EAE8E1"/>
<path d="M6.06553 39H34.3905C34.957 37.8881 35.6368 35.3308 33.824 33.9965C32.0112 32.6622 30.0473 27.1399 29.292 24.5455C27.7813 22.507 23.9669 19.7643 20.7945 25.1014C19.4727 27.3252 15.696 28.8077 15.1295 27.3252C14.1854 26.2133 11.7305 24.6566 9.46453 27.3252C6.63203 30.6608 3.23303 33.9965 6.06553 39Z" fill="#BEA690" stroke="#A79571"/>
<path d="M26.6183 25.652C24.0653 24.2643 23.0441 25.1894 25.0865 27.5023C27.129 29.8152 24.0653 29.3526 27.129 30.7403C30.1926 32.128 31.2138 27.5023 28.1502 27.5023C25.0865 27.5023 26.6183 25.652 26.6183 25.652Z" fill="#FBD241" stroke="#F9D451"/>
<path d="M10.4469 32.4523C11.2329 30.7951 10.1804 30.7738 8.44091 32.6208C6.70144 34.4678 6.53402 33.0004 5.8471 34.8688C5.16018 36.7371 9.63009 35.1546 9.0355 33.8877C8.44091 32.6208 10.4469 32.4523 10.4469 32.4523Z" fill="#FBD241" stroke="#F9D451"/>
<path d="M17.1694 30.3209C16.8652 28.7756 16.3755 28.3302 16.3198 29.7068C16.2642 31.0834 15.6001 29.3694 16.0342 31.1913C16.4683 33.0133 17.878 33.0268 17.0989 31.3668C16.3199 29.7068 17.1694 30.3209 17.1694 30.3209Z" fill="#FFEBA6" stroke="#F9D451"/>
<path d="M24.9767 37.3507C27.984 38.4282 29.2864 38.2497 26.9614 36.8925C24.6365 35.5353 28.326 36.3331 24.6986 35.1543C21.0713 33.9756 19.5202 35.6778 23.2408 36.2852C26.9614 36.8925 24.9767 37.3507 24.9767 37.3507Z" fill="#FBD241" stroke="#F9D451"/>
</svg>
