<svg width="53" height="52" viewBox="0 0 53 52" fill="none" xmlns="http://www.w3.org/2000/svg">
<path d="M25.5 29L27 48.5H32.5L30.5 45.5V18.5L32.5 32H35L33 13.5H18L16 32H19L21 18.5V45.5L19 48.5H24L25.5 29Z" fill="#413838"/>
<path d="M25.5 11.5C21 11.5 20 4.50001 25.5 4.5C31 4.49999 30 11.5 25.5 11.5Z" fill="#413838"/>
<path d="M25.5 29L27 48.5H32.5L30.5 45.5V18.5L32.5 32H35L33 13.5H18L16 32H19L21 18.5V45.5L19 48.5H24L25.5 29Z" stroke="#564F35"/>
<path d="M25.5 11.5C21 11.5 20 4.50001 25.5 4.5C31 4.49999 30 11.5 25.5 11.5Z" stroke="#564F35"/>
<path d="M31 7C31 7 22.8 8.2 20 7L21.5 6C22.4554 4.32821 23.4016 3.29909 24.3574 2.87951C24.9007 2.64103 25.4471 2.59945 26 2.7487C27.1295 3.05356 28.2864 4.15461 29.5 6L31 7Z" fill="#FBCE31"/>
<path d="M24.3574 2.87951C23.4016 3.29909 22.4554 4.32821 21.5 6L20 7C22.8 8.2 31 7 31 7L29.5 6C28.2864 4.15461 27.1295 3.05356 26 2.7487M24.3574 2.87951L24.5 5M24.3574 2.87951C24.9007 2.64103 25.4471 2.59945 26 2.7487M26 2.7487V5" stroke="#DBB325"/>
<path d="M44.5 27C45.5 25.5 45 21.5 43.5 20.5L42.5 21C44 22 44.5 23.5 44.5 27Z" fill="#555040"/>
<path d="M42.5 19.5C42.0217 18.9261 40.9454 17.9307 39.5 17.5C38.427 17.1803 36.9261 17.287 36.5 17.5C40.5 18 41.7754 20.2246 41.7754 20.2246L42.5 19.5Z" fill="#555040"/>
<path d="M44.5 27C45.5 25.5 45 21.5 43.5 20.5L42.5 21C44 22 44.5 23.5 44.5 27Z" stroke="#555040"/>
<path d="M42.5 19.5C42.0217 18.9261 40.9454 17.9307 39.5 17.5C38.427 17.1803 36.9261 17.287 36.5 17.5C40.5 18 41.7754 20.2246 41.7754 20.2246L42.5 19.5Z" stroke="#555040"/>
<path d="M42.8333 19L30 29.9565L30.5833 31L44 20.0435L42.8333 19Z" fill="#BDB188" stroke="#AB9F73"/>
</svg>
