<svg width="53" height="52" viewBox="0 0 53 52" fill="none" xmlns="http://www.w3.org/2000/svg">
<path d="M17.8223 9.25061C14.9603 15.9115 11.8761 38.6829 11.8761 38.6829C11.8761 38.6829 23.2496 42.8928 27.6165 40.2729C27.5369 34.7889 32.6715 11.4656 32.6715 11.4656C32.6715 11.4656 24.5366 5.87047 17.8223 9.25061Z" fill="#CCF3C6"/>
<path d="M18.1633 22.0574C18.1633 22.0574 16.6303 27.4538 19.6394 27.005C23.2504 26.4665 20.1715 23.9726 24.228 23.1216C27.2411 22.4895 25.3916 27.6237 25.3916 27.6237M15.8025 24.3781L28.5105 25.4359M15.716 27.098L14.2527 35.4369C16.7773 35.2451 15.8153 37.6647 15.8153 37.6647C15.8153 37.6647 20.8404 39.4581 24.1543 39.128C23.7953 36.7207 25.624 37.4323 25.624 37.4323C25.624 37.4323 26.4222 32.8838 26.9543 29.8514M17.0463 19.5171L18.6891 12.3818C20.9633 12.7809 20.6043 10.3736 20.6043 10.3736C20.6043 10.3736 23.9027 9.3895 28.6307 11.3913C28.2317 13.6656 30.1934 13.6191 30.1934 13.6191C30.1934 13.6191 28.9497 18.4801 28.2845 22.2706M17.8223 9.25061C14.9603 15.9115 11.8761 38.6829 11.8761 38.6829C11.8761 38.6829 23.2496 42.8928 27.6165 40.2729C27.5369 34.7889 32.6715 11.4656 32.6715 11.4656C32.6715 11.4656 24.5366 5.87047 17.8223 9.25061Z" stroke="#A8DE9F"/>
<path d="M24.8211 6.501C20.7805 12.5203 13.5519 34.3331 13.5519 34.3331C13.5519 34.3331 23.9545 40.5671 28.7295 38.797C29.662 33.3923 39.0077 11.4151 39.0077 11.4151C39.0077 11.4151 32.0435 4.41638 24.8211 6.501Z" fill="#C1E7BA"/>
<path d="M22.7958 19.1512C22.7958 19.1512 20.2944 24.1726 23.3347 24.2861C26.983 24.4224 24.4166 21.4038 28.5604 21.3151C31.6384 21.2491 28.8742 25.9544 28.8742 25.9544M20.0477 20.997L32.3429 24.3791M19.4613 23.6543L16.486 31.5807C19.0027 31.8575 17.6113 34.0583 17.6113 34.0583C17.6113 34.0583 22.2197 36.7473 25.5376 37.0336C25.6285 34.6014 27.2947 35.6379 27.2947 35.6379C27.2947 35.6379 28.9176 31.3144 29.9995 28.4321M22.1661 16.4485L25.0959 9.73829C27.2577 10.5497 27.3485 8.11751 27.3485 8.11751C27.3485 8.11751 30.7718 7.75827 35.0498 10.5973C34.2384 12.759 36.1751 13.0749 36.1751 13.0749C36.1751 13.0749 34.0567 17.6234 32.7043 21.2263M24.8211 6.501C20.7805 12.5203 13.5519 34.3331 13.5519 34.3331C13.5519 34.3331 23.9545 40.5671 28.7295 38.797C29.662 33.3923 39.0077 11.4151 39.0077 11.4151C39.0077 11.4151 32.0435 4.41638 24.8211 6.501Z" stroke="#96CF8D"/>
<path d="M31.7646 10.1437C26.3648 14.9811 13.9822 34.3388 13.9822 34.3388C13.9822 34.3388 22.527 42.9449 27.5909 42.4065C29.827 37.3985 44.3019 18.4033 44.3019 18.4033C44.3019 18.4033 39.2779 9.90379 31.7646 10.1437Z" fill="#B3D8AD"/>
<path d="M26.6833 21.9042C26.6833 21.9042 23.0213 26.154 25.9397 27.0135C29.4419 28.045 27.6988 24.4869 31.7366 25.4224C34.7359 26.1172 30.8971 29.9959 30.8971 29.9959M23.565 23.0157L34.6471 29.3243M22.3417 25.4464L17.5042 32.3947C19.875 33.2833 17.984 35.0732 17.984 35.0732C17.984 35.0732 21.7873 38.8152 24.9323 39.9106C25.6199 37.5759 26.9792 38.9911 26.9792 38.9911C26.9792 38.9911 29.6178 35.2011 31.3768 32.6745M26.7393 19.1297L31.2329 13.3488C33.1279 14.6681 33.8155 12.3333 33.8155 12.3333C33.8155 12.3333 37.2217 12.8291 40.6678 16.635C39.3486 18.53 41.1476 19.3136 41.1476 19.3136C41.1476 19.3136 37.9733 23.1995 35.7745 26.3579M31.7646 10.1437C26.3648 14.9811 13.9822 34.3388 13.9822 34.3388C13.9822 34.3388 22.527 42.9449 27.5909 42.4065C29.827 37.3985 44.3019 18.4033 44.3019 18.4033C44.3019 18.4033 39.2779 9.90379 31.7646 10.1437Z" stroke="#85B97D"/>
<path d="M37.1583 14.8854C30.2788 17.5188 11.3 31.6177 11.3 31.6177C11.3 31.6177 15.8841 43.3094 20.7861 44.7392C24.7995 40.7182 45.577 27.7804 45.577 27.7804C45.577 27.7804 44.2147 17.5518 37.1583 14.8854Z" fill="#A8CBA2"/>
<path d="M27.8909 24.3936C27.8909 24.3936 22.8498 27.1247 25.2215 29.0895C28.0676 31.4474 27.8311 27.3044 31.2109 29.7754C33.7213 31.6109 28.6602 33.9118 28.6602 33.9118M24.57 24.2738L32.3961 34.7044M22.4941 26.1722L15.3178 31.0813C17.1707 32.8632 14.7243 33.8788 14.7243 33.8788C14.7243 33.8788 16.7991 38.9964 19.2893 41.2788C20.8315 39.2672 21.5428 41.1722 21.5428 41.1722C21.5428 41.1722 25.4572 38.4945 28.0667 36.7093M29.018 21.7093L35.4233 17.806C36.6683 19.8242 38.2104 17.8126 38.2104 17.8126C38.2104 17.8126 41.1752 19.6109 42.8941 24.6531C40.9369 25.9919 42.3006 27.4506 42.3006 27.4506C42.3006 27.4506 37.8526 30.0151 34.5906 32.2465M37.1583 14.8854C30.2788 17.5188 11.3 31.6177 11.3 31.6177C11.3 31.6177 15.8841 43.3094 20.7861 44.7392C24.7995 40.7182 45.577 27.7804 45.577 27.7804C45.577 27.7804 44.2147 17.5518 37.1583 14.8854Z" stroke="#78A871"/>
</svg>
