<svg width="34" height="43" viewBox="0 0 34 43" fill="none" xmlns="http://www.w3.org/2000/svg">
<g id="Frame 1">
<g id="Vector 1">
<path d="M9.96357 27.2298C10.9825 29.2304 12.4769 31.1876 13.4419 32.9641L22.9894 12.4843C22.0234 10.4168 20.8359 8.45126 19.9637 6.74993L15.8571 15.7611L9.96357 27.2298Z" fill="white"/>
<path fill-rule="evenodd" clip-rule="evenodd" d="M16.3029 1.01557C14.2676 0.605985 1.41538 8.38833 1.41537 10.4363C1.41537 11.5173 6.02288 19.4926 9.96357 27.2298L15.8571 15.7611L19.9637 6.74993C18.2673 3.44089 16.8784 1.13138 16.3029 1.01557ZM15.6624 36.6505C15.0903 35.6662 14.0865 34.1507 13.4419 32.9641L22.9894 12.4843C23.5523 13.6892 24.8739 15.3383 25.4317 16.5803L15.6624 36.6505ZM16.8835 38.2889C17.9202 39.9565 18.1316 40.2604 18.5118 40.3369C20.547 40.7465 32.7588 31.7354 32.7588 29.2778C32.7588 28.1951 30.6271 25.2248 26.6529 18.6282L16.8835 38.2889Z" fill="#3D3A3A"/>
<path d="M25.4317 16.5803L15.6624 36.6505C16.0246 37.2738 16.5631 37.7735 16.8835 38.2889L26.6529 18.6282C26.3538 17.9484 25.7388 17.264 25.4317 16.5803Z" fill="white"/>
<path d="M32.7588 29.2778C32.7588 31.7354 20.547 40.7465 18.5118 40.3369C18.1316 40.2604 17.9202 39.9565 16.8835 38.2889C16.5631 37.7735 16.0246 37.2738 15.6624 36.6505C15.0903 35.6662 14.0865 34.1507 13.4419 32.9641C12.4769 31.1876 10.9825 29.2304 9.96357 27.2298C6.02288 19.4926 1.41537 11.5173 1.41537 10.4363C1.41537 10.4363 1.41538 10.8459 1.00832 12.4843C0.601258 14.1227 15.2553 41.4018 18.1047 41.9753C20.9541 42.5487 32.216 32.9641 32.7588 32.1449C33.3015 31.3258 32.7588 29.2778 32.7588 29.2778Z" fill="#282626"/>
<path d="M16.3029 1.01557L16.2043 1.50575L16.3029 1.01557ZM18.5118 40.3369L18.4131 40.8271L18.5118 40.3369ZM19.9637 6.74993L20.4086 6.52183L20.4086 6.52183L19.9637 6.74993ZM22.9894 12.4843L23.4424 12.2726L23.4424 12.2726L22.9894 12.4843ZM15.8571 15.7611L16.3018 15.9896L16.3072 15.9791L16.3121 15.9684L15.8571 15.7611ZM25.4317 16.5803L25.8878 16.3754L25.8878 16.3754L25.4317 16.5803ZM15.6624 36.6505L15.2301 36.9017L15.2301 36.9017L15.6624 36.6505ZM16.8835 38.2889L16.4589 38.5529L16.4589 38.5529L16.8835 38.2889ZM9.14945 6.34034L8.92473 5.89368L8.77584 5.96859L8.70168 6.11784L9.14945 6.34034ZM16.4016 0.525402C16.1864 0.482101 15.9466 0.499346 15.7166 0.538445C15.4786 0.578887 15.2112 0.649974 14.9243 0.743279C14.35 0.929989 13.6599 1.21805 12.9046 1.57463C11.3921 2.28876 9.57771 3.29707 7.8324 4.37943C6.08793 5.46128 4.39818 6.62595 3.13885 7.65565C2.51067 8.16928 1.97642 8.65996 1.59458 9.0983C1.40382 9.31729 1.24108 9.53454 1.1237 9.74467C1.01009 9.94804 0.915371 10.1862 0.91537 10.4363L1.91537 10.4363C1.91537 10.4368 1.91549 10.4203 1.92767 10.3829C1.93975 10.3459 1.9612 10.2959 1.99671 10.2324C2.06859 10.1037 2.18397 9.94415 2.34861 9.75514C2.67758 9.37749 3.16331 8.92738 3.77184 8.42981C4.98591 7.43712 6.63644 6.29781 8.35944 5.22928C10.0816 4.16126 11.8619 3.17278 13.3316 2.47891C14.0674 2.13149 14.7153 1.86276 15.2335 1.69427C15.4927 1.60998 15.7102 1.55387 15.8841 1.52431C16.0659 1.49341 16.165 1.49785 16.2043 1.50575L16.4016 0.525402ZM18.4131 40.8271C18.6392 40.8726 18.885 40.8458 19.1142 40.7956C19.3515 40.7436 19.6148 40.6563 19.8944 40.5442C20.4538 40.3198 21.1206 39.9791 21.8464 39.5604C23.3002 38.7217 25.0352 37.5442 26.7007 36.2809C28.3656 35.018 29.9751 33.6585 31.1735 32.4526C31.7718 31.8507 32.2785 31.2761 32.6392 30.7629C32.9819 30.2752 33.2588 29.7533 33.2588 29.2778H32.2588C32.2588 29.4166 32.1541 29.714 31.821 30.1879C31.5059 30.6362 31.0427 31.1657 30.4642 31.7477C29.3094 32.9098 27.7387 34.2383 26.0963 35.4842C24.4545 36.7296 22.7549 37.8818 21.3466 38.6942C20.6413 39.1011 20.0201 39.4163 19.5222 39.616C19.273 39.7159 19.0653 39.7826 18.9001 39.8188C18.7268 39.8568 18.6387 39.8524 18.6104 39.8467L18.4131 40.8271ZM20.4086 6.52183C19.5581 4.8628 18.7791 3.44318 18.1364 2.41945C17.816 1.90903 17.5216 1.48433 17.2629 1.17456C17.1338 1.02007 17.0045 0.883035 16.8769 0.776161C16.759 0.677417 16.5964 0.56462 16.4016 0.525402L16.2043 1.50575C16.1533 1.49548 16.16 1.48019 16.2348 1.54284C16.2999 1.59736 16.3868 1.6856 16.4954 1.81562C16.7119 2.07486 16.9787 2.45606 17.2895 2.95113C17.9092 3.93836 18.6728 5.32802 19.5187 6.97803L20.4086 6.52183ZM0.91537 10.4363C0.915369 10.5763 0.94971 10.7258 0.987861 10.8573C1.02866 10.998 1.0863 11.1591 1.15634 11.3355C1.29659 11.6887 1.498 12.1316 1.74673 12.646C2.24481 13.676 2.94792 15.0235 3.77013 16.5715C5.41785 19.6738 7.55027 23.5932 9.51803 27.4567L10.4091 27.0029C8.43618 23.1292 6.2945 19.1924 4.65329 16.1025C3.83104 14.5544 3.13597 13.2218 2.647 12.2106C2.4022 11.7044 2.21286 11.2865 2.08574 10.9664C2.02211 10.8061 1.9769 10.6775 1.94829 10.5788C1.91702 10.471 1.91537 10.4314 1.91537 10.4363L0.91537 10.4363ZM9.51803 27.4567C10.0406 28.4827 10.682 29.4918 11.3031 30.4525C11.9297 31.4218 12.5315 32.3356 13.0026 33.2028L13.8813 32.7255C13.3873 31.8162 12.7594 30.8631 12.1428 29.9095C11.5207 28.9473 10.9055 27.9775 10.4091 27.0029L9.51803 27.4567ZM23.4424 12.2726C22.4768 10.2061 21.2528 8.16856 20.4086 6.52183L19.5187 6.97803C20.4189 8.73397 21.57 10.6276 22.5364 12.696L23.4424 12.2726ZM13.8951 33.1754L23.4426 12.6956L22.5362 12.273L12.9887 32.7529L13.8951 33.1754ZM19.5087 6.54259L15.4021 15.5537L16.3121 15.9684L20.4187 6.95728L19.5087 6.54259ZM15.4124 15.5325L9.51885 27.0013L10.4083 27.4583L16.3018 15.9896L15.4124 15.5325ZM25.8878 16.3754C25.5894 15.711 25.0949 14.9529 24.6307 14.2444C24.1522 13.514 23.7051 12.8351 23.4424 12.2726L22.5364 12.696C22.8366 13.3384 23.3318 14.0865 23.7942 14.7924C24.271 15.5201 24.7162 16.2076 24.9756 16.7851L25.8878 16.3754ZM13.0026 33.2028C13.3324 33.8101 13.7515 34.4966 14.1544 35.1466C14.5612 35.8029 14.9488 36.4177 15.2301 36.9017L16.0947 36.3993C15.8039 35.899 15.4036 35.2639 15.0043 34.6198C14.6012 33.9693 14.196 33.3048 13.8813 32.7255L13.0026 33.2028ZM24.9822 16.3614L15.2128 36.4317L16.1119 36.8693L25.8813 16.7991L24.9822 16.3614ZM15.2301 36.9017C15.4338 37.2523 15.6828 37.5609 15.9026 37.8279C16.1324 38.1072 16.3206 38.3303 16.4589 38.5529L17.3082 38.0249C17.1261 37.7321 16.8848 37.4477 16.6747 37.1924C16.4546 36.925 16.2532 36.6721 16.0947 36.3993L15.2301 36.9017ZM16.4589 38.5529C16.9709 39.3765 17.2994 39.8972 17.55 40.2176C17.8159 40.5575 18.0577 40.7555 18.4131 40.8271L18.6104 39.8467C18.5857 39.8417 18.5317 39.8495 18.3377 39.6015C18.1284 39.3339 17.8329 38.8689 17.3082 38.0249L16.4589 38.5529ZM33.2588 29.2778C33.2588 28.8794 33.0739 28.3971 32.8125 27.8644C32.5401 27.3094 32.1396 26.6145 31.624 25.7619C31.1072 24.9075 30.4658 23.8801 29.7084 22.6593C28.9502 21.437 28.0731 20.0166 27.0812 18.3702L26.2246 18.8863C27.2198 20.5381 28.0995 21.9627 28.8587 23.1865C29.6188 24.4117 30.2554 25.4314 30.7683 26.2795C31.2824 27.1294 31.6632 27.7923 31.9147 28.3049C32.1772 28.8398 32.2588 29.1348 32.2588 29.2778H33.2588ZM27.1106 18.4269C26.9398 18.0388 26.6841 17.6599 26.4603 17.3268C26.2247 16.9762 26.0206 16.671 25.8878 16.3754L24.9756 16.7851C25.15 17.1732 25.4069 17.5521 25.6303 17.8846C25.8655 18.2346 26.0669 18.5379 26.1952 18.8296L27.1106 18.4269ZM17.3313 38.5114L27.1007 18.8507L26.2051 18.4058L16.4358 38.0664L17.3313 38.5114ZM25.8388 30.8258C25.178 30.8258 24.5632 30.9355 24.0458 31.2609C23.5186 31.5926 23.1527 32.1099 22.9218 32.8069L23.8711 33.1214C24.0473 32.5896 24.2916 32.2877 24.5783 32.1074C24.8748 31.9208 25.2777 31.8258 25.8388 31.8258V30.8258ZM22.9218 32.8069C22.6521 33.6211 22.9123 34.4153 23.403 34.9813C23.8899 35.5429 24.6347 35.9217 25.4317 35.9217V34.9217C24.9471 34.9217 24.4707 34.6862 24.1586 34.3262C23.8503 33.9706 23.7338 33.536 23.8711 33.1214L22.9218 32.8069ZM25.4317 35.9217C26.2421 35.9217 26.9017 35.5318 27.3477 35.0413C27.7842 34.5615 28.0627 33.9343 28.0627 33.3737H27.0627C27.0627 33.6323 26.9165 34.0292 26.6079 34.3685C26.309 34.6972 25.9031 34.9217 25.4317 34.9217V35.9217ZM28.0627 33.3737C28.0627 32.8774 27.9142 32.2646 27.5726 31.7616C27.2198 31.2423 26.6459 30.8258 25.8388 30.8258V31.8258C26.2536 31.8258 26.5416 32.0236 26.7454 32.3235C26.9602 32.6397 27.0627 33.0509 27.0627 33.3737H28.0627ZM1.41537 10.4363C0.91537 10.4363 0.91537 10.4361 0.91537 10.4358C0.91537 10.4358 0.91537 10.4355 0.915371 10.4354C0.915371 10.4351 0.915372 10.4348 0.915373 10.4345C0.915375 10.4339 0.915379 10.4333 0.915383 10.4328C0.915391 10.4318 0.915402 10.4308 0.915414 10.43C0.915438 10.4284 0.915466 10.4273 0.915484 10.4267C0.915518 10.4255 0.915508 10.4264 0.915335 10.4296C0.914986 10.4359 0.913998 10.4509 0.911461 10.4765C0.906369 10.5277 0.895233 10.6192 0.871212 10.7642C0.823098 11.0547 0.724448 11.5532 0.523071 12.3637L1.49357 12.6049C1.69925 11.777 1.80413 11.2515 1.85777 10.9276C1.88463 10.7654 1.89893 10.6521 1.90656 10.5754C1.91038 10.5369 1.91257 10.5071 1.91382 10.4847C1.91444 10.4734 1.91482 10.4639 1.91506 10.4559C1.91517 10.4519 1.91525 10.4483 1.9153 10.4451C1.91533 10.4434 1.91534 10.4419 1.91535 10.4404C1.91536 10.4397 1.91536 10.439 1.91537 10.4383C1.91537 10.438 1.91537 10.4376 1.91537 10.4373C1.91537 10.4371 1.91537 10.4369 1.91537 10.4368C1.91537 10.4365 1.91537 10.4363 1.41537 10.4363ZM0.523071 12.3637C0.485067 12.5167 0.501493 12.6758 0.519684 12.7901C0.540243 12.9191 0.57636 13.065 0.622425 13.2209C0.714849 13.5337 0.85974 13.9283 1.04598 14.3866C1.41938 15.3055 1.97506 16.5191 2.65762 17.9216C4.02374 20.7287 5.91099 24.3187 7.89896 27.8732C9.8864 31.4268 11.9795 34.9538 13.7575 37.6323C14.6456 38.9702 15.4619 40.1068 16.1518 40.9315C16.4962 41.3431 16.8179 41.6878 17.1087 41.9432C17.3824 42.1837 17.6907 42.402 18.0061 42.4655L18.2034 41.4851C18.1625 41.4769 18.0225 41.4149 17.7687 41.1919C17.5319 40.984 17.2471 40.6822 16.9188 40.2898C16.2635 39.5065 15.4707 38.4051 14.5906 37.0793C12.8323 34.4304 10.7531 30.9278 8.77173 27.3851C6.79089 23.8433 4.91287 20.2705 3.55679 17.484C2.87825 16.0898 2.3336 14.8989 1.9724 14.0101C1.79133 13.5646 1.66035 13.2046 1.58144 12.9375C1.54184 12.8035 1.51843 12.7031 1.50724 12.6328C1.49368 12.5476 1.50613 12.5543 1.49357 12.6049L0.523071 12.3637ZM18.0061 42.4655C18.5019 42.5652 19.0982 42.4374 19.6991 42.2217C20.3184 41.9995 21.0218 41.6538 21.7668 41.2313C23.2585 40.3855 24.9696 39.2013 26.5965 37.9825C28.2257 36.762 29.7817 35.4983 30.9655 34.4874C31.5573 33.9821 32.0584 33.5379 32.4304 33.1925C32.6161 33.02 32.7724 32.8696 32.8928 32.747C33.0028 32.635 33.1115 32.5178 33.1756 32.4211L32.342 31.8688C32.3445 31.865 32.3354 31.8785 32.3027 31.9154C32.273 31.949 32.2322 31.9925 32.1793 32.0463C32.0737 32.1538 31.9296 32.2928 31.7499 32.4597C31.3911 32.7929 30.901 33.2275 30.3161 33.7269C29.1466 34.7256 27.6073 35.9758 25.997 37.1822C24.3844 38.3902 22.7119 39.5459 21.2735 40.3615C20.5536 40.7697 19.9055 41.0852 19.3613 41.2805C18.7988 41.4824 18.4199 41.5287 18.2034 41.4851L18.0061 42.4655ZM33.1756 32.4211C33.3792 32.1138 33.4578 31.7339 33.486 31.3926C33.5151 31.0417 33.4952 30.6742 33.4593 30.3493C33.4232 30.0221 33.3693 29.7244 33.3247 29.5092C33.3024 29.4012 33.2821 29.313 33.2673 29.251C33.2599 29.22 33.2538 29.1956 33.2495 29.1784C33.2473 29.1698 33.2456 29.1631 33.2443 29.1583C33.2437 29.1559 33.2432 29.1539 33.2428 29.1525C33.2427 29.1518 33.2425 29.1512 33.2424 29.1507C33.2423 29.1505 33.2423 29.1503 33.2422 29.1501C33.2422 29.15 33.2422 29.1499 33.2421 29.1499C33.2421 29.1498 33.2421 29.1497 32.7588 29.2778C32.2755 29.4059 32.2754 29.4058 32.2754 29.4057C32.2754 29.4057 32.2754 29.4056 32.2754 29.4056C32.2754 29.4056 32.2754 29.4056 32.2754 29.4056C32.2754 29.4056 32.2754 29.4057 32.2755 29.406C32.2756 29.4066 32.2759 29.4076 32.2763 29.4091C32.2771 29.412 32.2783 29.4169 32.28 29.4235C32.2833 29.4368 32.2884 29.4571 32.2948 29.4837C32.3075 29.537 32.3254 29.6152 32.3455 29.7119C32.3857 29.9063 32.4336 30.1718 32.4653 30.459C32.4973 30.7486 32.5113 31.0466 32.4895 31.3101C32.4668 31.5832 32.4097 31.7665 32.342 31.8688L33.1756 32.4211ZM8.70168 6.11784C8.67114 6.17929 8.64462 6.23833 8.62348 6.29439C8.60323 6.34808 8.58284 6.41223 8.57201 6.48123C8.56647 6.51653 8.56214 6.56105 8.56444 6.61126C8.56671 6.66077 8.57595 6.7278 8.60597 6.80043C8.63742 6.8765 8.69086 6.95601 8.7736 7.01941C8.85581 7.0824 8.94438 7.11222 9.02106 7.12325C9.09472 7.13384 9.15809 7.12743 9.2033 7.11893C9.24933 7.11027 9.28835 7.09719 9.31822 7.08528C9.37668 7.06198 9.42578 7.03278 9.46171 7.00893C9.53453 6.96061 9.60185 6.90163 9.65674 6.84639C9.71167 6.79112 9.77018 6.72347 9.81805 6.65044C9.8417 6.61437 9.87049 6.5653 9.89344 6.50703C9.90516 6.47726 9.91799 6.43849 9.92647 6.39285C9.93479 6.34802 9.94104 6.28532 9.93069 6.21246C9.91994 6.13672 9.89079 6.04863 9.82859 5.96643C9.76582 5.88348 9.68658 5.82929 9.60991 5.7972C9.53677 5.76659 9.46914 5.75713 9.41912 5.75481C9.36844 5.75246 9.32354 5.75689 9.28804 5.76253C9.21866 5.77355 9.15434 5.79428 9.10076 5.81473C9.04478 5.83611 8.98591 5.8629 8.92473 5.89368L9.37417 6.78699C9.41475 6.76657 9.44174 6.75496 9.45751 6.74894C9.47569 6.742 9.46901 6.74632 9.44495 6.75014C9.4321 6.75218 9.40678 6.75531 9.37282 6.75374C9.33952 6.75219 9.28575 6.74558 9.22384 6.71967C9.1584 6.69228 9.08776 6.64464 9.03118 6.56987C8.97516 6.49584 8.94979 6.41756 8.94062 6.35302C8.93187 6.29135 8.93752 6.24125 8.94329 6.2102C8.94921 6.17833 8.95751 6.15452 8.96297 6.14064C8.96867 6.12617 8.97383 6.1161 8.97663 6.11094C8.97956 6.10552 8.98148 6.10259 8.98171 6.10223C8.98194 6.10189 8.97905 6.10623 8.97207 6.11459C8.96539 6.1226 8.95698 6.13189 8.94744 6.14148C8.9379 6.15108 8.92869 6.15953 8.92077 6.16622C8.91249 6.17321 8.90825 6.17605 8.90873 6.17574C8.90916 6.17546 8.91218 6.17346 8.9177 6.17043C8.92296 6.16755 8.93319 6.16224 8.94787 6.15639C8.96195 6.15078 8.98611 6.14225 9.01845 6.13616C9.04997 6.13023 9.10082 6.12443 9.16335 6.13342C9.2289 6.14284 9.30773 6.16887 9.38181 6.22563C9.45643 6.28281 9.50336 6.35367 9.53014 6.41843C9.55549 6.47977 9.5619 6.53285 9.5634 6.56553C9.56492 6.59892 9.56189 6.62374 9.55992 6.63624C9.55625 6.65964 9.55216 6.66579 9.55914 6.64728C9.56523 6.63114 9.57687 6.60378 9.59721 6.56283L8.70168 6.11784Z" fill="#0A0909"/>
</g>
</g>
</svg>
